<?xml version="1.0" encoding="UTF-8"?>
<svg id="Layer_1" data-name="Layer 1" xmlns="http://www.w3.org/2000/svg" xmlns:xlink="http://www.w3.org/1999/xlink" viewBox="0 0 2293.33 615.18">
  <defs>
    <style>
      .cls-1 {
        fill: #cdc8fe;
      }

      .cls-2 {
        mask: url(#mask);
      }

      .cls-3 {
        fill: #defba1;
      }

      .cls-4 {
        fill: #fff;
      }

      .cls-5 {
        fill: #181818;
      }
    </style>
    <mask id="mask" x="0" y="42.79" width="2293.33" height="564.39" maskUnits="userSpaceOnUse">
      <g id="mask0_205_4" data-name="mask0 205 4">
        <path class="cls-5" d="M1500.53,44.61c-9.33,2-18.13,6.13-22.66,10.67-4.14,4.13-4.27,11.33-.4,17.47l2.8,4.53-5.07,7.73c-11.33,17.07-15.2,35.47-10.53,49.73,1.86,5.73,4.4,9.07,11.86,16.4,14.8,14.27,18,16,27.47,15.07,7.47-.67,8.27-.4,13.87,3.87,5.46,4.13,14.13,14.4,14.13,16.8,0,.53-2.8,1.07-6.27,1.07-7.6,0-14,2.8-26.26,11.2-9.07,6.13-9.47,6.4-18,5.87-7.87-.4-8.8-.13-9.2,2.27-.8,4.8-4.27,6-16.27,6-16.4,0-25.2-2.67-39.6-12.27-7.2-4.67-18.93-10.67-28.4-14.4-9.2-3.73-21.07-9.73-27.73-14.13-12.27-8.13-34.14-29.2-40.8-39.33-2.27-3.2-6.14-8.13-8.67-10.93-5.6-5.87-10.13-6.4-21.87-2.4-6.4,2.27-10.4,2.53-29.33,2.13-24.4-.53-27.87.27-28.93,6.67-.54,3.07-1.74,4.27-6,5.87-2.94,1.07-6,2.93-6.94,4.13-4.13,5.2.27,12,7.87,12,2.4,0,3.87.8,4.4,2.53,1.07,3.47,8.93,6,14.93,4.8,3.87-.67,5.07-.4,6.67,1.87,2.8,4.13,9.2,3.47,20.67-1.87,5.46-2.67,13.06-5.07,16.8-5.6,11.06-1.2,8.93,2.13-6.67,10.8-14,7.6-18.27,15.6-11.07,20.27,2.94,2,4.27,2,9.07.67,3.07-.93,9.33-3.73,13.87-6.27,7.33-4,9.2-4.53,18.26-4.53h10.14l10.8,9.6c27.73,24.93,37.86,32.13,62.26,44.27,19.6,9.87,25.74,12.13,38.4,14.8,14.14,2.93,47.6,3.6,60.4,1.2,5.47-1.07,10.14-1.6,10.54-1.33.26.4-.14,3.6-.94,7.33-3.73,17.47,6.14,35.2,24.14,43.47,7.06,3.2,7.73,3.87,9.86,10.4,2.54,8.13,10.14,23.73,14.27,29.47,1.6,2.27,6.67,8.53,11.33,13.73l8.4,9.73-384.8.27c-211.6.27-384.66.13-384.66-.27.13-.4.93-2.13,2-4,1.07-1.87,2-4.53,2-6s1.2-5.07,2.67-8c1.47-2.93,2.53-6.53,2.67-8.13,0-1.47.93-4.67,2.13-7.07,1.87-3.87,1.87-4.53,0-7.47-3.2-4.93-8.13-4.4-13.6,1.47-2.53,2.53-4.53,5.2-4.53,5.87,0,2-8.8,6.67-12.53,6.67-5.33,0-4.13-2,3.2-5.2,7.73-3.33,10.27-8.53,5.87-11.73-3.07-2.27-8.4-1.2-16.93,3.33-7.73,4.13-12.27,9.6-18.67,22.4-4.93,9.87-9.6,14-18.13,16.53-2.13.53-26.13,1.33-53.2,1.47l-49.33.4-6-5.47c-3.2-2.93-8.53-7.2-11.73-9.2-3.2-2.13-6.13-3.87-6.4-4.13-.27-.13,1.33-1.73,3.33-3.6,3.73-3.07,3.87-3.6,3.47-13.47-.4-9.2-.13-10.53,3.07-14.13,3.87-4.67,4.27-8.13,1.2-10.53-2.93-2.53-8.13-12-9.2-16.93-.67-3.47-.13-5.2,2.8-9.2,5.07-6.67,6-17.6,2-26.4-2.13-4.93-3.87-6.67-8.4-8.8-5.47-2.4-9.6-3.07-14.93-2.8-1.73.13-2.27.93-1.73,2.67.8,3.33-1.33,4.13-10.8,4.13-22.27.13-48.13,11.6-53.07,23.6-2.93,6.8-2.27,9.73,4.67,23.87,5.47,11.07,6.67,14.8,7.2,23.2.53,5.47.4,10.67-.13,11.47-.53.93-7.73,1.73-18.27,2.27-18.93.67-24.67,2.13-44.67,11.07-10.67,4.8-12.13,5.07-25.6,5.33-8,.13-15.07.27-15.87.4-.8,0-1.2,1.73-.93,3.73.53,4.93-2.53,5.6-31.6,7.07-14.93.67-26.53,2-30.67,3.2-6,1.87-26.8,2.13-190.27,2.13-183.33,0-183.73,0-183.73,2.67s.53,2.67,178.13,2.93l178.13.4-10.93,6.53c-14.53,8.8-22.93,11.47-41.2,12.8-8.53.67-18.13,1.73-21.47,2.53-3.33.8-10.93,1.33-16.93,1.47-13.47,0-15.07.53-15.07,5.6,0,3.07.8,4.27,4.27,5.6,4.13,1.73,4.13,1.87,1.2,3.33-7.2,3.87.67,14.27,8.67,11.47,3.07-1.2,4.27-.8,6.8,1.6,3.73,3.87,6.53,3.87,14.13-.13l6.13-3.33-.13,3.73c-.13,2.13.27,4.4.8,5.33,1.47,2.27,6.67,1.73,13.07-1.07,3.2-1.47,7.47-3.07,9.47-3.47,2-.4,6.53-3.73,10-7.47l6.27-6.67,22-3.87c12.13-2.13,37.87-7.33,57.33-11.33,19.47-4.13,38.67-7.87,42.67-8.27l7.33-.8-5.33,5.87c-6.4,7.2-15.47,15.33-28.93,26.4-5.73,4.53-10.4,8.8-10.4,9.33,0,.67-3.73,1.47-8.4,1.73-9.73.8-16.13,3.87-34.53,16-14.67,9.87-26,14.53-45.2,18.4-17.73,3.6-41.6,4.93-48.67,2.67-19.6-6.27-46.53-24.27-76.93-51.6-14.53-13.07-15.87-13.73-22.4-10-4.4,2.53-5.2,2.67-5.2.93,0-3.47-6.13-8.67-10.4-8.67-2.13,0-7.47,1.87-11.73,4-5.47,2.8-11.2,4.4-19.07,5.47-14.8,1.73-18.53,3.47-30.27,14-8.53,7.6-9.87,9.47-9.87,13.33,0,2.4-.53,4.8-1.33,5.2-2.27,1.33-1.47,9.47,1.07,11.73,3.47,3.2,7.07,2.8,13.07-1.2,7.87-5.47,13.2-7.33,28.4-10,21.47-3.87,28.13-3.07,28.13,3.33,0,7.73,54.27,48.67,85.2,64.4,21.33,10.93,50.4,19.07,67.6,19.07,3.2,0,5.87.67,5.87,1.33,0,1.47-11.2,15.73-14.27,18.27-1.07.8-5.73,1.33-11.6,1.07-9.2-.27-10.93-.8-25.6-8.67-31.2-16.53-57.47-33.33-88.67-56.8-18.93-14.27-21.2-15.33-25.33-10.4-1.33,1.73-2.13,1.2-4.8-3.47-3.73-6.27-8.93-9.33-15.73-9.33-4.27,0-6,1.2-15.07,10.8-11.07,11.6-17.73,15.73-30.93,19.2-9.73,2.53-19.2,7.07-24.93,11.87-2.93,2.53-4.27,4.93-4.8,9.33-.53,3.2-2.13,8-3.6,10.67-1.6,2.53-2.4,5.33-2,6.27.53.8.27,3.87-.67,6.67-1.33,4-1.47,6-.27,8.53,2.4,5.2,7.6,4.4,17.87-3.07,4.8-3.6,15.6-9.6,24-13.33,8.27-3.73,17.47-8.13,20.4-9.6,9.07-4.67,19.33-2.93,19.33,3.2,0,4.13,10.67,14,28.53,26.4,19.2,13.2,35.07,21.87,71.87,38.93,17.73,8.27,36.13,17.47,40.93,20.53,20.93,13.33,20,12.93,29.33,12.8,20.53-.27,43.73-15.87,95.33-63.87,21.73-20.27,40.67-36.67,49.47-42.93l4.13-2.93,6.4,3.33c3.6,1.73,7.87,3.2,9.6,3.2,9.6,0,21.73-10,43.33-35.6,19.47-23.07,47.47-53.07,64-68.27,6.27-6,11.73-10.8,12.13-10.8.27,0,3.33,2.67,6.53,6,7.07,7.07,11.6,7.87,14.93,2.67,1.73-2.53,2.8-3.07,4.53-2.13,4.67,2.4,23.2,8.13,33.2,10.13,13.47,2.8,33.6,2.8,44.4,0,10-2.53,19.47-7.2,38.93-18.8,19.47-11.73,28.53-15.73,47.6-21.2l16.27-4.67h779.47l4.93,14.93c13.47,40.93,37.74,75.47,66,93.73,9.87,6.4,25.07,14.13,32.14,16.53,3.6,1.2,6.53,4.13,13.06,13.47,18.94,27.2,53.2,62.67,82.27,85.07,14.67,11.47,16.27,12.27,21.87,12.27,9.6-.13,15.2-3.6,25.86-16,16.4-19.07,39.07-37.2,66.14-52.53l11.06-6.4h16.94c20.26,0,37.33,3.2,59.06,11.07,8.27,3.07,17.6,5.6,20.54,5.87,6.66.53,14.13,3.6,19.73,7.87,8,6.13,16.53,9.47,46.13,18.27,5.47,1.6,12.14,4.4,14.67,6,2.53,1.73,6.13,3.2,8.13,3.2,5.74,0,7.6-3.47,7.2-13.6-.26-7.33-1.06-10.13-4.4-15.33-2.13-3.47-4.4-7.73-4.8-9.33-1.33-4.4-4.26-6.13-12.13-7.2-9.2-1.2-14.27-4.8-19.73-14.27-5.74-9.73-11.34-13.6-19.87-13.6-7.6,0-16,3.87-19.2,8.67-1.6,2.53-3.33,3.33-6.67,3.33-3.86,0-4.53-.4-4.53-3.2,0-2-.93-3.6-2.27-4-5.2-1.47-33.6-8.8-34.26-8.8-.4,0-.8-.53-.8-1.2,0-1.33,16.26-4.13,24.13-4.13,3.07,0,9.33.67,14,1.6,7.33,1.33,8.8,1.2,11.73-.8,6.8-4.4,2.27-12.8-8.4-16-3.46-1.07-8.93-3.2-12-4.8-4.4-2.13-6.93-2.67-10.93-2-8.67,1.47-18.27-2.27-27.73-10.67-9.07-8-12.4-9.47-19.74-8-6.93,1.33-13.06,7.87-15.73,17.2-1.73,6-2.8,7.6-4.4,7.07-1.33-.4-7.6-2.27-14.27-4.27-11.6-3.47-12.66-3.6-33.33-2.67-20.67.8-21.73.67-32.67-2.8-15.2-4.67-32-12.4-51.6-23.47l-16.26-9.2-8-15.33c-10.4-19.87-19.47-33.33-31.07-46.27l-9.33-10.27h288.13c287.2,0,288.13,0,288.13-2.67s-.93-2.67-291.33-2.67h-291.47l-6.93-5.2c-3.87-2.8-13.73-8.8-22-13.47-14.8-8.4-37.6-24.53-38.53-27.47-.27-.93,1.06-1.87,2.93-2.4,5.73-1.47,3.73-5.07-6.93-12.13-11.07-7.33-18-15.73-20.54-25.07-1.86-6.8-.8-36.53,1.6-48.67,1.74-8.27,1.74-8.53,5.47-7.73,7.73,1.47,18.4,7.73,23.6,13.73,4.53,5.07,6,5.87,8.8,5.2,4.27-1.07,10.4,2,24.67,12.67,16.8,12.4,20.4,13.73,36.53,12.8,8.67-.4,20.53-2.4,33.47-5.47,20-4.8,32-6,36.53-3.47,1.33.67,3.2,3.2,4.13,5.6.94,2.4,3.47,6.8,5.6,9.73,2.14,2.93,5.2,7.47,6.8,10,1.74,2.53,4.27,4.8,5.87,5.07,4,.53,7.47-5.07,6.8-11.07-.27-2.53-.13-4.67.53-4.67.54,0,4,2.67,7.74,6,8.93,8,16,7.87,16-.4,0-2.8.4-3.07,3.86-2.27,3.74.8,8.14-1.73,8.14-4.8,0-.67,2-1.2,4.53-1.2,4.8,0,8.8-2.8,8.8-6.13,0-3.73-6.13-8.27-13.33-9.73-9.6-2-26.4-8.93-31.6-12.93-8.54-6.4-11.2-6.93-35.6-6.27-19.74.67-26.27.27-48.54-2.93-14.26-1.87-27.46-3.2-29.46-2.67-3.87.8-2.8,1.47-44.54-29.07-25.2-18.53-38.53-24.93-55.2-26.93l-8-.93.67-5.87c.4-3.33,0-6.67-.93-7.73-1.2-1.33-1.07-2.13.53-3.47,1.07-.93,2-2.4,2-3.33s1.2-3.2,2.8-5.2c2.4-3.07,3.73-3.47,10.93-3.6,4.54,0,11.2-.53,14.8-.93l6.4-.93,2.94-8.13c4.13-11.47,9.33-19.73,18.4-29.47,7.33-7.87,9.46-12.53,6.4-14.4-2.54-1.6-1.34-3.33,2.13-3.33,6,0,19.47-18,17.47-23.2-.8-2-2.67-1.33-13.47,4.53-14,7.6-25.6,10.67-40.27,10.67s-28.93-3.33-58.26-13.47c-14.8-5.2-31.07-10.27-36-11.33-11.07-2.27-26.8-2.27-37.74.13ZM1540.8,49.28c6,1.33,19.2,5.6,29.33,9.33,47.74,17.6,74.14,19.07,100.8,5.47q10.4-5.2,8.27-1.6c-4.8,8.27-6.53,9.47-15.87,11.87-10.66,2.67-12.4,5.47-4.26,7.33,2.66.67,4.93,1.73,4.93,2.4,0,1.73-16,18.93-18.67,20.13-3.06,1.33-25.06,1.2-34.26-.27-4.54-.8-13.34-2.8-19.47-4.67-14.93-4.27-14.53-4.27-15.2-2.4-.27.8,3.6,2.8,9.87,4.8,16.93,5.47,22.8,6.53,40.53,7.47l16.8.8-1.87,4.53-1.86,4.53-11.6-.93c-6.4-.4-12.8-.93-14.14-1.2-3.6-.4-4.13,2.53-.53,3.6,1.73.4,8,1.2,14,1.6,10.27.93,10.8,1.07,9.87,3.73-1.47,3.73-7.07,4.67-28.14,4.67-45.6.27-78-10.53-107.86-35.87-9.6-8.27-22.8-25.87-22.8-30.53,0-13.47,34-21.6,62.13-14.8ZM1493.87,92.74c5.06,4.8,11.46,10.27,14.26,12.13,3.47,2.27,6.94,6.53,10.4,13.07,2.94,5.33,8.4,12.8,12,16.53,4.4,4.53,8.54,10.8,12,18.13,9.6,20.53,17.47,28.4,26.67,27.07,4.13-.53,4.27-.4,3.47,2.8-2.14,8.53-13.74,23.87-20.8,27.6-9.47,4.8-18.54-.13-18.54-10,0-5.2,1.74-8.13,3.34-5.47.4.67,1.33,1.33,2.13,1.33,4.8,0-6.13-18.27-16.27-26.93-6-5.33-6.26-5.73-4.26-8,3.46-3.87.8-4.53-5.6-1.33-7.47,3.6-14.67,3.73-20.14.4-4.66-2.8-10.4-13.47-12-22.13-.93-5.2-.8-5.33,1.74-3.07,2.66,2.4,5.73,3.2,5.73,1.47,0-.53-1.6-2.67-3.6-4.67l-3.6-3.87,5.6-5.07c6.4-5.87,6.93-9.2,2.8-16-1.87-3.2-3.07-4.13-4.13-3.07-1.07,1.07-.8,2.4.8,4.8,3.2,5.07,2.66,8.13-2.4,12-2.54,1.87-5.07,3.47-5.6,3.47-1.74,0,.66-22,3.46-31.07,1.47-4.93,2.94-8.93,3.07-8.93s4.4,4,9.47,8.8ZM1476.27,95.54c-2.8,10.27-2.8,32,.13,42.4,1.2,4.27,1.87,8.27,1.47,8.67-.4.4-2.27-1.2-4-3.33-9.07-11.33-9.6-28-1.47-45.2,2.67-5.6,5.07-10.13,5.47-10.13.26,0-.4,3.47-1.6,7.6ZM1531.07,118.74c16.93,8.67,36.26,13.6,59.46,15.33,6.67.53,12.14,1.07,12.14,1.2,0,2.8-3.47,8.67-5.07,8.8-3.6.13-7.07.93-7.87,1.73-1.33,1.2,2.14,4.53,5.74,5.33,2.93.8,3.33,1.47,2.93,5.87-.4,4.8-.53,4.93-7.73,6-7.74,1.2-33.74.4-37.6-1.07-2-.8-9.47-14-8.54-15.07.27-.13,4.8,1.73,10.27,4.4,11.2,5.2,19.2,7.33,18.4,4.8-.4-.93-4.93-3.33-10.27-5.47-12.26-5.07-22.8-11.73-30-19.33-5.46-5.6-12.66-16.67-10.93-16.67.4,0,4.53,1.87,9.07,4.13ZM1307.2,125.68c2.27,2.4,6.67,8.13,9.87,12.53,6.4,9.2,14.93,17.47,30,29.47,12.8,10.13,23.6,16.13,41.2,23.2,7.6,2.93,18,8.27,23.06,11.73,18.4,12.4,28,15.33,47.74,14.53l11.33-.53.67,9.33c.26,5.07,1.06,10.4,1.6,11.6,1.33,3.47-5.87,4.27-23.07,2.53-18.53-1.87-28.67-4.93-49.2-14.93-19.6-9.6-36.27-20.4-50.13-32.67-5.74-5.07-14.14-12.4-18.54-16.27l-8.26-6.93h-10.67c-10.13,0-11.47.4-22.67,6-12.53,6.4-16.4,7.2-17.6,4-1.33-3.33,2.8-7.87,11.34-12.53,16.8-8.93,20.13-15.07,12.4-22.8-5.2-5.2-10.94-6.53-34.94-8-22.26-1.47-27.06-2.67-26.4-6.4.4-2,3.2-2.4,27.74-2.93,21.2-.53,28.53-1.2,32.66-2.93,7.2-2.93,7.07-3.07,11.87,2ZM1245.33,139.14l12.67,1.6-8.93,2.27c-9.2,2.27-27.07,3.07-28.27,1.2-1.07-1.87,1.33-4.4,5.33-5.6,5.07-1.47,4.4-1.47,19.2.53ZM1272.67,142.48c-.8.67-6.54,3.33-13.07,6-11.07,4.53-22.93,6.4-25.47,3.87-.4-.53,7.74-3.07,18.14-5.87,21.73-5.6,22.13-5.6,20.4-4ZM1291.07,144.88l4.26,2.4-4.66.4c-6.54.53-16.94,4-23.6,7.87-5.47,3.07-12.14,3.73-12.8,1.2-.14-.67,4-3.07,9.06-5.2,8.4-3.47,22-8.8,23.07-8.93.27,0,2.27,1.07,4.67,2.27ZM1577.33,167.94l8.67.13-7.33,3.87c-10.14,5.33-14.4,5.2-20.14-.8l-4.53-4.93,7.33.93c4,.4,11.2.8,16,.8ZM1614.8,169.28c12.4,2.4,32.67,13.2,48.93,26.27,5.2,4.27,5.6,5.07,5.6,11.07,0,4.93-.93,7.73-4.26,12.8-6.67,9.73-7.87,10-15.07,3.33-6.93-6.4-18.13-12-26-13.07-6-.8-5.33-2-8.67,17.47-2.66,15.47-2.53,36.93,0,45.87,2.67,8.67,10.27,18.27,19.74,24.8,4.26,2.93,7.46,5.47,7.2,5.6-.14.27-5.6,2.13-12,4.27-18.8,6.4-35.47,18.13-49.74,35.2-3.6,4.27-6.93,7.73-7.46,7.73-1.6,0-16.14-18.27-21.34-26.8-2.66-4.4-6.4-12.53-8.4-18.27-4.8-14-4.66-13.87-11.46-15.73-7.87-2.27-17.47-10.8-21.34-18.8-5.73-11.87-3.06-27.73,6.8-41.73,3.2-4.4,3.34-5.33.8-5.33-1.06,0-3.73,2.93-6,6.4l-4.13,6.4-13.6,2.4-13.6,2.4-2.4-2.93c-3.07-3.73-4-9.33-3.47-20l.4-8.67,8.8-.8c7.87-.67,9.87-1.47,20.4-8.53,9.74-6.53,12.67-7.87,18.67-8.4l7.2-.53-.67,5.87c-.8,7.33,2,13.47,7.6,16.4,8.27,4.27,16.27,1.6,25.74-8.53,5.73-6.13,15.6-23.6,15.6-27.6,0-2.8,17.46-9.07,26.8-9.73,1.2-.13,5.46.53,9.33,1.2ZM1688.67,213.81c8.26,6,13.06,10.53,12.8,11.6-1.2,3.47-.8,11.2.53,11.6.8.27,1.73-1.87,2.13-4.53.94-5.2,4-8.53,8-8.53,1.34,0,13.34,1.6,26.8,3.47,20.54,2.8,28.27,3.33,49.07,2.93l24.67-.4,6.8,4.8c7.73,5.47,19.46,10.53,33.33,14.53,9.33,2.67,13.33,6,9.07,7.6-4.4,1.73-14.4-.93-28.14-7.47-15.46-7.33-19.46-8-23.33-4.53-3.47,3.07-2.93,9.2,1.6,17.6,2.67,5.07,3.47,7.87,2.8,10-.67,1.47-1.73,2.8-2.4,2.8-1.73,0-13.07-16.4-15.6-22.53-3.2-7.6-7.07-9.33-19.87-8.4-6,.4-18.4,2.67-27.6,4.93-19.2,4.93-37.2,6.53-45.73,4-3.2-.8-10.67-5.2-16.4-9.47-5.73-4.4-13.2-9.6-16.53-11.47-3.34-1.87-6.27-3.6-6.54-3.87-.26-.13,1.47-3.07,3.87-6.4,2.8-3.87,4.53-8.13,4.93-12,.4-3.33,1.07-6.13,1.6-6.13.4.13,6.8,4.53,14.14,9.87ZM1830,251.81c5.87,2.93,13.07,6.27,15.87,7.47,3.86,1.47,4.93,2.4,3.86,3.47-1.73,1.73-11.33-2.53-22.13-9.73-4.53-2.93-6.8-3.73-7.73-2.8-1.07,1.07.13,2.53,4.26,5.07,8,4.93,14.54,11.33,14.54,14.27,0,4-4.4,2.8-9.87-2.8-2.8-2.8-7.47-6.27-10.27-7.6-5.33-2.27-7.6-6.4-6-10.53,1.2-3.2,6.14-2.27,17.47,3.2ZM610.8,282.08c.93,3.47,3.6,8.8,6.13,12.13l4.4,5.87-3.47,4.67c-3.33,4.27-3.47,5.33-2.93,14,.67,8.13.4,9.87-1.73,12-3.47,3.47-11.2,3.2-18.53-.53-4.93-2.4-6.67-4.4-10-11.47-2.8-5.73-5.47-9.2-8.13-10.53-6.4-3.2-8.53-5.73-8.53-10.27,0-8.67,7.73-10.27,12.27-2.53,5.2,8.93,13.07,8.53,13.07-.67,0-3.47.93-5.87,2.8-7.6,2.13-1.87,2.67-3.6,2.13-6.8l-.8-4.4h11.87l1.47,6.13ZM577.47,314.21c2.53,3.07,6.8,12.53,6.13,13.33-.4.27-6.27-.4-13.07-1.47-6.93-1.07-15.33-2.4-18.93-2.8-3.47-.53-6-1.33-5.6-2s2.67-.53,5.07.13c5.6,1.6,14.53,1.6,18.8-.13,2.67-.93,3.47-2.13,3.47-5.33,0-4.53,1.33-5.07,4.13-1.73ZM1649.73,322.48c7.47,5.73,20.27,14.13,28.27,18.8,22.4,12.8,28.4,17.33,40.93,30.53,14.94,15.6,25.34,31.47,38.4,58.13,15.2,30.8,27.74,67.6,36.14,105.33,2.93,13.47,5.06,17.73,7.86,16,.94-.67,1.2-3.2.67-7.87l-.93-6.93,10.4-8.27c15.86-12.53,22.8-15.6,45.06-20.27,27.2-5.73,47.2-13.2,52.4-19.87,1.47-1.87,2.27-1.6,6.4,2.8,3.47,3.73,4.67,6.27,4.67,9.6,0,4.53-.27,4.8-15.6,12.93-42.4,22.53-67.87,41.87-91.2,69.07-6.8,8-7.6,8.53-14.13,9.07-6.8.67-6.94.67-19.07-8.67-39.2-30.13-74.93-69.07-95.73-104.27-14.54-24.67-29.47-61.33-38.4-94.53-3.87-14.4-4.94-16.27-7.87-13.33-1.73,1.6-1.73,2.8,0,9.2,1.07,4,1.6,7.47,1.33,7.73-.4.4-3.33-.4-6.66-1.6-6-2.4-8.67-2-8.67,1.07s3.6,5.07,10.93,6.67l6.8,1.6,6.94,19.87c8.13,23.47,12.93,34.93,21.73,52l6.4,12.53-4.67-2c-24.66-10.27-46.26-28.53-62.26-52.67-10.67-16.13-17.87-31.2-25.34-54l-6-18.13,7.07-8.13c3.87-4.4,10.93-11.33,15.73-15.2,8.67-7.2,27.87-17.73,32.4-17.73,1.34,0,8.54,4.67,16,10.53ZM790.27,316.88c.27.67-2.27,2.4-5.6,3.6-11.2,4.4-12.8,12.8-2.4,12.8,7.07,0,13.6-3.73,18.67-10.93,4.4-6.13,8.53-8.13,10.4-5.07,1.47,2.53-4.67,10.4-11.47,14.8-4.4,2.8-6.27,4.67-5.33,5.6.8.8,2.93.27,6.27-1.6,2.67-1.6,5.2-2.67,5.47-2.27,1.33,1.2-2.53,6.13-6.27,8.13-2.27,1.2-4,2.53-4,3.2,0,2.13,1.73,2.67,4.13,1.33,3.07-1.6,3.07-.93.67,3.87-2.53,5.07-9.87,8.8-25.07,12.8-16.53,4.27-25.2,8.4-48.93,22.67-24.13,14.4-35.47,18.4-53.47,18.4-6.93.13-16.53-.67-21.33-1.47-12.67-2.4-37.33-10.67-37.33-12.53,0-3.47,7.87-18,11.07-20.53,8.53-6.67,10.4-6.67,23.87.13,10.67,5.47,13.6,6.27,20.8,6.4,7.2.13,9.6-.53,18.67-5.33,10.13-5.33,17.33-7.2,34.8-9.07,10.67-1.07,21.87-4.8,27.47-9.07,2.4-1.87,6.67-7.87,9.73-13.73,6.27-11.87,13.6-19.73,21.07-22.4,5.6-2,7.47-2,8.13.27ZM574.67,330.61c8.4,1.47,17.07,3.73,19.2,4.8,2.13.93,4.53,1.87,5.33,1.87,4,0,20.93,9.73,27.87,16l7.73,7.07-5.07,2.27c-7.33,3.2-12.67,10-17.6,22.4-2.53,6-5.07,11.33-5.73,11.73-2,1.33-7.6-3.2-12.67-10.27-4.67-6.67-8.13-8-7.33-2.93.27,1.87-2.8,5.47-10.4,12.4-13.87,12.4-44.67,45.2-62.67,66.67-17.33,20.67-29.2,32.27-36.13,35.33-2.8,1.33-5.47,2.13-5.87,1.87-.27-.4.13-4.53.93-9.2,1.2-7.2,1.07-9.87-.67-16-3.73-12.4-14-29.07-24.93-40.13-9.47-9.6-12.53-11.47-25.33-15.47-1.6-.4-1.2-1.2,1.33-3.2,29.47-23.6,43.07-38,52-54.8,6.4-12,3.07-12.93-3.87-1.2-6,10.13-8.93,12.53-14.53,11.87-3.2-.4-4-1.6-7.2-10.8-2-5.73-4.53-11.73-5.73-13.33-3.2-4.53-2.53-4.93,5.73-4.13,10.27,1.07,20.67-1.07,34-6.93,20-8.8,26.53-10,52.93-9.33,16.13.4,28.13,1.47,38.67,3.47ZM443.47,356.88c1.2,3.6,3.07,8.4,4,10.8,1.33,3.47,1.47,4.53.13,4.93-3.47,1.2-85.07,17.87-98.27,20-7.73,1.33-17.6,3.6-22,5.33-4.93,1.73-12.8,3.2-20.4,3.73-12,.93-14.13,1.6-26.13,8.53-1.47.93-3.87,1.73-5.07,1.73-4.93,0-2.13-4.27,6.67-10,4.93-3.2,10.67-7.33,12.93-9.2,3.2-2.8,3.47-3.47,1.73-4.13-2.4-.93-7.73,1.33-7.73,3.2,0,1.6-16.93,12.27-22.67,14.4-4.8,1.73-9.33,1.2-9.33-1.07,0-.67,3.73-2.93,8.4-4.93,4.67-2.13,12-6.13,16.27-8.93,7.07-4.53,8.93-5.07,18-5.33,21.6-.8,31.33-4.13,55.33-18.8,16-9.87,21.6-11.2,49.33-12.67,13.2-.53,25.87-1.73,28-2.4,7.33-2.27,8.27-1.87,10.8,4.8ZM688.13,366.88c-8,4.4-11.07,5.47-16.67,5.47-7.33-.13-19.47-4.13-24.8-8.4l-3.33-2.67h54.67l-9.87,5.6ZM273.33,391.54c-3.07,2.13-14.53,2.8-17.47.93-3.47-2.13,0-3.2,9.73-3.2,10.8,0,10.93,0,7.73,2.27ZM168.53,392.74c1.33,1.33,2.13,4.4,2.13,8.4,0,5.2.67,7.07,3.47,10,2,1.87,4.13,3.47,4.67,3.47,2,0,1.33,2.53-2.27,8-4,6-4.93,6.27-11.2,3.07-6.8-3.33-15.2-3.47-30.93-.53-13.47,2.4-23.47,6.13-31.87,11.6-2,1.2-4.53,1.87-5.73,1.47-2.4-.93-2.93-6.93-.8-8.27.8-.4,1.33-2.8,1.33-5.2,0-3.87,1.33-5.6,9.6-12.67,11.2-9.87,12.13-10.27,27.33-12.13,8.13-1.07,13.87-2.67,19.07-5.33,8.4-4.4,12.27-4.93,15.2-1.87ZM181.33,404.74c0,5.07-2,5.6-4.53,1.33-1.2-1.73-.93-2.67,1.07-4.27q3.47-2.53,3.47,2.93ZM205.47,414.08c27.33,24,57.6,43.2,74.4,47.47,5.07,1.2,6.13,2.27,7.87,6.67,1.33,3.47,2.8,5.07,4.67,5.07,2.27,0,2.53-.67,1.87-5.2-.8-6.13.4-6.8,12.67-6.8,10.53,0,31.6-4.27,44.8-9.07,6.13-2.27,16.93-8,24.27-12.8,18.53-12.13,23.33-14.4,32.67-15.2,16.4-1.2,28.8,5.07,40.67,20.8,6.27,8.27,16.27,26.8,17.87,32.93.53,2.13-2.4,4.93-15.2,14.4-17.73,13.2-34.53,27.6-63.2,54.67-32.13,30.13-54.67,46.53-71.87,52.53-12.53,4.4-17.07,3.6-30-4.67-16.27-10.4-17.87-11.2-51.47-26.8-44-20.4-71.6-36.8-88.4-52.67-8.27-7.6-8.67-10.13-4-23.47,3.47-9.47,7.87-17.2,14.27-24.53l4.13-4.67,13.6,10.4c31.73,24.13,61.07,43.07,93.2,60.13,15.07,7.87,15.73,8.4,14.8,11.73-1.6,6.53-1.2,8.93,1.73,9.33,2.13.27,3.07-.8,4.67-6l1.87-6.4h17.07l6.8-8c13.07-15.47,43.07-44.13,63.2-60.53,11.07-9.07,20.27-17.33,20.27-18.4,0-.93-.93-2.13-2-2.53-3.07-1.2-36,25.6-58.67,47.6l-12,11.73-13.33-1.33c-44.27-4.4-83.6-24.67-136.53-70.13l-4.4-3.73,4.27-4.67c6.13-6.53,12-19.47,12-26.4s-.8-7.33,17.47,8.53ZM317.47,407.94c-1.73,1.47-4.4,2.67-6,2.67-1.47.13-5.2,1.2-8.13,2.67-2.93,1.47-5.73,2.53-6.27,2.67-2.13,0-.93-3.6,2-6.4,2.67-2.53,7.07-3.47,17.6-4l4-.13-3.2,2.53ZM1786.93,452.08c11.74,6.8,43.47,19.6,54.27,21.87,6.53,1.47,11.2,1.47,20.67.4,13.6-1.47,24.93-.8,34.93,2.27,6.27,1.87,6.8,2.27,6.13,5.33-1.2,6.4-17.33,12.93-47.86,19.33-10.67,2.27-21.87,5.47-24.94,6.93l-5.6,2.67-15.73-3.2-15.73-3.07-7.07-21.33c-3.87-11.73-8.53-25.2-10.53-29.87-1.87-4.8-3.47-8.8-3.47-9.07,0-.67,3.87,1.33,14.93,7.73ZM144.4,455.28c1.73,1.87,4,5.07,4.93,7.2,1.33,3.47,1.07,4.53-4,12.27-2.93,4.53-6.53,12-7.87,16.4l-2.53,8.13-6.53-.4c-3.87-.27-8.53.4-11.2,1.47-25.07,10.93-38.53,17.73-46.93,23.6-10.27,7.2-14.27,7.87-14.27,2.8,0-1.47.67-3.07,1.47-3.6.8-.4,1.2-2.67.8-5.07-.4-2.67.27-5.33,1.73-7.47,1.33-1.87,2.8-6.27,3.33-9.73,1.33-9.07,8.4-13.73,30.13-20.13,8.27-2.53,13.87-5.2,19.73-9.47,4.4-3.33,8.13-6.4,8.13-6.93,0-.67,2.27-3.6,5.2-6.8,6.27-6.93,12.4-7.6,17.87-2.27ZM1949.87,461.28c9.46,8.93,17.73,12.53,29.46,12.67,6.27,0,10.4.8,12.67,2.27,1.87,1.2,6.13,2.93,9.6,3.73,7.07,1.87,11.2,5.47,9.87,8.8-.67,1.73-1.87,2-6.54,1.33-20.8-3.33-33.33-2-61.2,6.53-17.6,5.47-18.4,5.47-18.4,1.87s-2.13-7.6-6.4-12.13c-2.66-2.93-3.06-4-1.73-5.47.8-1.07,2.8-6,4.53-11.07,2.27-7.2,3.87-9.73,7.47-12.13,7.47-5.07,12.53-4.13,20.67,3.6ZM468.8,489.54c-.4.93-.93,3.33-1.33,5.33-.93,4.13-2.8,4.67-6.8,1.6-2.53-1.87-2.53-2,1.33-5.2,4.4-3.47,7.6-4.27,6.8-1.73ZM1964.53,503.28c5.47,1.87,11.07,3.33,12.27,3.33,1.33,0,5.87,1.07,10.13,2.27,8.54,2.53,10.14,5.2,8.4,14.93-1.73,10-2.66,10.4-15.06,5.6-18.8-7.2-39.34-11.6-57.87-12.4-4.27-.27-7.73-.53-7.73-.67s2-1.33,4.4-2.53c2.26-1.2,5.46-3.2,6.93-4.53,2.67-2.4,21.87-9.2,26.27-9.33,1.33,0,6.8,1.47,12.26,3.33ZM2039.07,507.94c1.86,1.47,5.6,6.27,8.26,10.67,5.47,9.07,12.54,14,22,15.47,7.2,1.07,8.8,2.13,10,6.8.4,1.87,2.27,5.33,4.14,7.73,2.66,3.47,3.2,5.73,3.2,13.07,0,4.93-.54,8.93-1.2,8.93-.8,0-5.34-2.13-10.4-4.67-4.94-2.53-9.74-4.67-10.67-4.67-.8,0-9.6-2.67-19.47-5.87-12.13-3.87-20.53-7.47-25.86-11.07-4.27-2.8-10.54-6.27-14-7.6-7.2-2.67-6.94-2.13-4.8-11.33,1.46-6.27,1.86-6.8,5.46-6.8,2.8,0,5.2-1.47,8.8-5.33,2.67-2.8,6.27-5.73,8.14-6.53,5.6-2.27,12.66-1.73,16.4,1.2ZM1811.73,513.68l7.07,1.6-9.33,7.6c-5.2,4.27-10,7.73-10.54,7.73-.66,0-1.86-3.2-2.8-7.07-.8-3.73-1.86-8.4-2.4-10.13-.8-3.07-.66-3.2,5.07-2.27,3.2.53,9.07,1.6,12.93,2.53Z"/>
      </g>
    </mask>
  </defs>
  <path class="cls-4" d="M1982.67,37.94c-2.67,3.2-.4,7.33,4,7.33,2.66,0,4.13-.8,4.66-2.67,1.07-3.33-1.33-6.67-4.66-6.67-1.34,0-3.07.93-4,2Z"/>
  <circle class="cls-3" cx="1125.5" cy="114.44" r="91.5"/>
  <circle class="cls-1" cx="936.5" cy="220.44" r="91.5"/>
  <circle class="cls-1" cx="364" cy="86.94" r="38"/>
  <circle class="cls-3" cx="2136" cy="228.94" r="38"/>
  <circle class="cls-1" cx="1445.5" cy="492.44" r="32.5"/>
  <path class="cls-4" d="M1146.13,1.01c-.26.53-.93,5.73-1.46,11.6-1.07,12.93.8,24.53,6.13,37.2l3.87,9.33-2.8,9.33-2.8,9.47-3.6-10.67c-4.54-13.33-7.07-18.13-13.07-24.8-5.73-6.27-7.73-6.53-9.6-.93-6,18.93.27,38.67,14.93,46.53l6.54,3.47-8,15.33c-4.27,8.53-8.8,16.8-10,18.4-2.4,3.47-2.8,2.93-4.27-6-1.2-7.2-8.93-23.2-13.2-27.2-4.53-4.27-6-2.8-7.47,7.73-2.13,15.6,2.67,31.2,11.34,36.4,5.86,3.33,5.6,4-11.07,21.47-10.53,10.93-12.4,13.6-10.4,14,1.87.4,5.73-2.67,13.47-10.53,5.86-6.13,12.26-13.2,14-15.47l3.33-4.4,8.8,1.6c7.6,1.33,10.13,1.2,17.73-.8,10.14-2.8,19.34-8.53,24.4-14.93,4-5.33,3.34-8.53-2-8.53-7.2,0-27.33,4.13-33.33,6.8-3.33,1.33-6.27,2.4-6.53,2.13-.67-.67,11.73-22.67,13.33-23.73.67-.53,4-1.2,7.47-1.6,14.26-1.73,27.06-8.27,34.13-17.47,3.47-4.53,6.53-16.67,4.8-18.53-2.13-2.13-24.67,10.67-35.2,20-2.93,2.53-5.47,4.4-5.73,4-.27-.27.26-2.67,1.46-5.33,1.07-2.53,3.2-9.47,4.8-15.2,1.6-5.73,4.4-12.13,6.27-14.4,4.93-6,6.93-11.73,6.93-20.27-.13-12.53-7.46-27.6-16.26-32.93-3.87-2.4-5.87-2.67-6.94-1.07ZM1156.93,11.81c7.34,9.6,10.27,24.13,6.54,32.8l-1.74,4-.8-6.4c-.53-3.47-1.6-7.73-2.53-9.33-1.6-2.67-1.87-1.87-2.4,7.07l-.67,10-3.06-9.2c-2.27-6.93-2.94-12.27-2.94-22.4,0-15.07.67-15.6,7.6-6.53ZM1136.13,56.61c5.34,11.6,8.27,20.67,6.54,20.67-.54,0-1.74-1.73-2.67-3.87-2-4.8-6.67-9.47-6.67-6.67,0,1.07,1.47,5.07,3.34,9.07,1.86,4,3.2,7.47,2.93,7.73-.27.27-2.13-.93-4.27-2.53-5.86-4.67-10-14.93-10-25.33,0-16.67,2.67-16.4,10.8.93ZM1186.13,74.08c-.4,1.2-.8,2.67-.8,3.33,0,2.4-9.86,12.13-14.8,14.67-7.06,3.47-9.33,3.07-4.53-.8,3.07-2.67,3.47-3.33,1.6-3.33-1.33,0-4.27.93-6.4,2.13-11.2,5.73.8-4.53,15.47-13.33,8.8-5.33,10.66-5.87,9.46-2.67ZM1115.47,112.88c1.86,5.2,3.3,16,3.03,17.07-.4.93-1.83-6.93-3.17-10.4-1.33-3.47-2.93-6.27-3.73-6.27-1.73,0-.13,9.87,2.53,14.8,2.14,4.27.8,5.2-2.53,1.47-3.87-4.27-6.27-13.6-6.27-24.13l.14-10.13,3.2,4c1.86,2.13,4.93,8.27,6.8,13.6ZM1166.53,127.41c-5.46,5.87-15.6,10.13-25.2,10.8l-8.66.53,7.86-2.67c4.27-1.47,8.54-3.33,9.34-4.27,1.46-1.6-1.07-1.47-13.87.67l-4.67.8,5.87-2.8c6.67-3.2,19.73-6.27,27.33-6.4l5.2-.13-3.2,3.47Z"/>
  <path class="cls-4" d="M374.67,39.81c-15.33,4.67-26.53,19.6-26.67,35.33,0,10.4,2,16.53,7.87,24.27,10.27,13.6,29.2,18.4,44.93,11.33,23.07-10.13,29.87-40.27,13.33-59.73-2-2.27-7.2-6.13-11.73-8.27-6.53-3.33-9.73-4.13-16.27-4-4.53,0-9.6.53-11.47,1.07ZM395.47,44.61c26.67,7.87,31.73,45.33,8,59.87-12.93,8-30.27,6.13-41.07-4.67-18.27-18.27-10.27-48.27,14.93-56,5.33-1.6,11.07-1.33,18.13.8Z"/>
  <g class="cls-2">
    <g>
      <path class="cls-5" d="M1546.93,264.21c1.07,3.07,10.94,8.93,17.74,10.53,7.86,1.73,21.33-.27,24.66-3.6,1.87-2,1.47-2.13-4.66-1.07-13.6,2.27-21.2,1.47-28.67-3.2-7.33-4.53-9.87-5.33-9.07-2.67Z"/>
      <path class="cls-5" d="M694.67,393.14c-1.87,1.33-4.53,2.67-5.87,2.93-3.87.8-4.27,3.87-.53,3.87,4.13,0,11.73-4.8,11.73-7.33,0-2.67-1.2-2.53-5.33.53Z"/>
      <path class="cls-5" d="M386.67,371.01c0,2.67,7.2,5.47,11.47,4.4,4.4-1.2,3.47-3.73-1.6-4.13-2.13-.27-5.2-.8-6.8-1.33-2.27-.67-3.07-.4-3.07,1.07Z"/>
      <path class="cls-5" d="M2172.67,53.41c-.27,1.07-.8,7.6-.94,14.53l-.4,12.67-12.93.4c-7.2.13-13.07.93-13.07,1.6s5.87,1.47,13.07,1.6l12.93.4.67,13.07c.4,7.33,1.2,12.93,2,12.93s1.6-5.6,2-12.93l.67-13.07,11.73-.4c6.4-.13,11.6-.93,11.6-1.6s-5.2-1.47-11.6-1.6l-11.73-.4-.4-13.33c-.4-12.4-1.87-18.4-3.6-13.87Z"/>
      <path class="cls-5" d="M473.87,109.28c-5.87,2.27-4.8,10.67,1.47,10.67,3.73,0,7.6-3.47,7.07-6.4-.67-3.07-5.33-5.47-8.53-4.27Z"/>
      <path class="cls-5" d="M236.8,120.08c-.4,2.27-.8,7.07-.8,10.67v6.4l-8.93.4c-5.07.27-9.07.93-9.07,1.73,0,.67,4,1.47,9.07,1.73l8.93.4v8.53c0,8.93.8,12.67,2.8,12.67.67,0,1.2-4.8,1.2-10.67v-10.67l6.4-.13c7.73-.13,13.87-1.87,10.93-2.93-1.07-.53-5.33-1.07-9.33-1.2l-7.33-.4-.4-10.4c-.4-10.53-2-13.47-3.47-6.13Z"/>
      <path class="cls-5" d="M862.4,136.61c-5.33,2-15.47,8.53-18.13,11.73-2.4,2.8-.53,6.27,3.6,6.27,3.2.13,5.07,3.33,28.13,50.27,13.6,27.6,26.4,52.53,28.4,55.33,4.67,6.4,9.07,8.27,15.07,6.4,5.73-2,9.87-7.2,9.87-12.53,0-2.67-9.33-22.13-27.33-57.47-23.87-46.4-27.2-53.73-26-56.4.8-1.73,1.07-3.73.67-4.4-1.2-1.73-8.53-1.33-14.27.8ZM862.67,143.28c-3.33,1.73-6.53,3.2-7.33,3.2-.67,0,1.33-1.47,4.67-3.2,3.33-1.73,6.67-3.2,7.33-3.2.8,0-1.33,1.47-4.67,3.2ZM882.8,169.41c6.53,13.33,11.87,24.4,11.6,24.53-.27.27-4.27.67-8.93.8l-8.4.4-10.53-20.67c-5.73-11.33-10.53-20.93-10.53-21.6s10.4-6.13,14.27-7.47c.27-.13,5.87,10.67,12.53,24ZM893.2,200.74c.27.27-1.6.53-4.27.53s-5.2-.67-5.6-1.47c-.67-.93.67-1.07,4.27-.4,2.8.53,5.33,1.07,5.6,1.33ZM912.67,229.41c6.27,12.53,11.33,23.87,11.33,25.07,0,2.53-3.2,5.87-6.67,7.07-5.33,1.87-7.87-1.47-21.33-28.27l-13.33-26.67h18.67l11.33,22.8Z"/>
      <path class="cls-5" d="M2154.67,182.48c-12.8,2.93-21.2,9.33-26.67,20.67-4,8-4.27,9.6-3.73,18.4.8,11.73,3.86,18.4,12,25.87,8.4,7.87,16,10.4,28.4,9.6,11.86-.8,20-5.07,26.93-14.13,18-23.6,3.33-57.33-26.27-60.67-3.33-.4-8.13-.27-10.66.27ZM2172.27,188.21c7.6,2.27,17.73,11.73,20.53,19.33,5.2,13.47,1.87,27.2-8.8,36.8-21.6,19.47-55.07,4.67-55.2-24.4,0-22.93,21.2-38.4,43.47-31.73Z"/>
      <path class="cls-5" d="M127.73,286.61c-13.73,7.33-17.33,25.47-7.33,36.93,14.93,16.93,42.27,6.93,42.27-15.6,0-17.6-19.47-29.47-34.93-21.33ZM149.33,291.81c6.4,4.53,9.6,10.8,8.93,17.6-1.07,11.6-10.4,19.47-21.73,18.13-7.6-.8-13.2-5.07-15.87-12.27-2.93-7.6-1.87-13.87,3.6-20,6.53-7.47,17.33-8.93,25.07-3.47Z"/>
      <path class="cls-5" d="M1451.6,450.08c-.53.53-.93,7.47-.93,15.33v14.4l-12.67.4c-16.67.53-17.07,2.93-.67,3.73l12.67.67.4,13.73c.27,10.13.8,13.6,2,13.2,1.07-.27,1.73-4.93,2-14l.4-13.6h14c10.67,0,14-.4,13.6-1.73-.4-1.07-4.8-1.73-14.13-2l-13.6-.4-.14-12.93c0-12.8-1.06-18.67-2.93-16.8Z"/>
      <path class="cls-5" d="M861.33,480.08c-9.47,1.07-22.8,5.47-25.33,8.53-2.4,2.8.53,2.67,10.13-.8,12.27-4.4,29.6-4.93,45.07-1.33,6.93,1.6,15.6,4.4,19.07,6.27,8.13,4.13,9.6,4,18.13-.67,9.2-5.2,24.27-8.13,41.2-8.13,11.2,0,15.47.67,23.07,3.47,11.6,4.13,13.33,4.4,13.33,1.87,0-1.2-3.87-3.47-10-5.87-9.33-3.87-11.07-4-27.33-3.87-19.33.13-34,3.07-44.13,9.07l-5.6,3.33-6.53-3.2c-14-6.8-34.53-10.4-51.07-8.67Z"/>
      <path class="cls-5" d="M1316.8,523.28c-4.53,4.53-1.6,12.67,4.53,12.67,6.94,0,10.54-6.8,5.74-10.93-3.87-3.47-7.87-4-10.27-1.73ZM1324.67,529.28c0,1.07-1.34,2.13-2.94,2.4-2.4.4-3.06-.27-3.06-2.4s.66-2.8,3.06-2.4c1.6.27,2.94,1.33,2.94,2.4Z"/>
      <path class="cls-5" d="M1115.33,542.08c-14.93,2.93-17.6,3.87-25.33,9.2l-8.4,5.73-2.8-2.93c-8-8.53-25.87-13.6-37.2-10.67-7.47,2-4.67,3.6,6.67,3.87,13.06.27,18.53,2.27,26.8,9.87,3.2,3.07,6.4,5.47,6.93,5.47s3.07-1.87,5.73-4.13c8-7.07,18.14-10.93,30.27-11.47,13.47-.67,14.8-1.07,12.67-3.73-1.6-1.87-8.8-2.4-15.34-1.2Z"/>
    </g>
  </g>
  <path class="cls-4" d="M868.2,126.89c-5.33,2-15.47,8.53-18.13,11.73-2.4,2.8-.53,6.27,3.6,6.27,3.2.13,5.07,3.33,28.13,50.27,13.6,27.6,26.4,52.53,28.4,55.33,4.67,6.4,9.07,8.27,15.07,6.4,5.73-2,9.87-7.2,9.87-12.53,0-2.67-9.33-22.13-27.33-57.47-23.87-46.4-27.2-53.73-26-56.4.8-1.73,1.07-3.73.67-4.4-1.2-1.73-8.53-1.33-14.27.8ZM868.46,133.55c-3.33,1.73-6.53,3.2-7.33,3.2-.67,0,1.33-1.47,4.67-3.2,3.33-1.73,6.67-3.2,7.33-3.2.8,0-1.33,1.47-4.67,3.2ZM888.59,159.69c6.53,13.33,11.87,24.4,11.6,24.53-.27.27-4.27.67-8.93.8l-8.4.4-10.53-20.67c-5.73-11.33-10.53-20.93-10.53-21.6s10.4-6.13,14.27-7.47c.27-.13,5.87,10.67,12.53,24ZM898.99,191.02c.27.27-1.6.53-4.27.53s-5.2-.67-5.6-1.47c-.67-.93.67-1.07,4.27-.4,2.8.53,5.33,1.07,5.6,1.33ZM918.46,219.69c6.27,12.53,11.33,23.87,11.33,25.07,0,2.53-3.2,5.87-6.67,7.07-5.33,1.87-7.87-1.47-21.33-28.27l-13.33-26.67h18.67l11.33,22.8Z"/>
  <path class="cls-4" d="M1500.53,52.61c-9.33,2-18.13,6.13-22.66,10.67-4.14,4.13-4.27,11.33-.4,17.47l2.8,4.53-5.07,7.73c-11.33,17.07-15.2,35.47-10.53,49.73,1.86,5.73,4.4,9.07,11.86,16.4,14.8,14.27,18,16,27.47,15.07,7.47-.67,8.27-.4,13.87,3.87,5.46,4.13,14.13,14.4,14.13,16.8,0,.53-2.8,1.07-6.27,1.07-7.6,0-14,2.8-26.26,11.2-9.07,6.13-9.47,6.4-18,5.87-7.87-.4-8.8-.13-9.2,2.27-.8,4.8-4.27,6-16.27,6-16.4,0-25.2-2.67-39.6-12.27-7.2-4.67-18.93-10.67-28.4-14.4-9.2-3.73-21.07-9.73-27.73-14.13-12.27-8.13-34.14-29.2-40.8-39.33-2.27-3.2-6.14-8.13-8.67-10.93-5.6-5.87-10.13-6.4-21.87-2.4-6.4,2.27-10.4,2.53-29.33,2.13-24.4-.53-27.87.27-28.93,6.67-.54,3.07-1.74,4.27-6,5.87-2.94,1.07-6,2.93-6.94,4.13-4.13,5.2.27,12,7.87,12,2.4,0,3.87.8,4.4,2.53,1.07,3.47,8.93,6,14.93,4.8,3.87-.67,5.07-.4,6.67,1.87,2.8,4.13,9.2,3.47,20.67-1.87,5.46-2.67,13.06-5.07,16.8-5.6,11.06-1.2,8.93,2.13-6.67,10.8-14,7.6-18.27,15.6-11.07,20.27,2.94,2,4.27,2,9.07.67,3.07-.93,9.33-3.73,13.87-6.27,7.33-4,9.2-4.53,18.26-4.53h10.14l10.8,9.6c27.73,24.93,37.86,32.13,62.26,44.27,19.6,9.87,25.74,12.13,38.4,14.8,14.14,2.93,47.6,3.6,60.4,1.2,5.47-1.07,10.14-1.6,10.54-1.33.26.4-.14,3.6-.94,7.33-3.73,17.47,6.14,35.2,24.14,43.47,7.06,3.2,7.73,3.87,9.86,10.4,2.54,8.13,10.14,23.73,14.27,29.47,1.6,2.27,6.67,8.53,11.33,13.73l8.4,9.73-384.8.27c-211.6.27-384.66.13-384.66-.27.13-.4.93-2.13,2-4,1.07-1.87,2-4.53,2-6s1.2-5.07,2.67-8c1.47-2.93,2.53-6.53,2.67-8.13,0-1.47.93-4.67,2.13-7.07,1.87-3.87,1.87-4.53,0-7.47-3.2-4.93-8.13-4.4-13.6,1.47-2.53,2.53-4.53,5.2-4.53,5.87,0,2-8.8,6.67-12.53,6.67-5.33,0-4.13-2,3.2-5.2,7.73-3.33,10.27-8.53,5.87-11.73-3.07-2.27-8.4-1.2-16.93,3.33-7.73,4.13-12.27,9.6-18.67,22.4-4.93,9.87-9.6,14-18.13,16.53-2.13.53-26.13,1.33-53.2,1.47l-49.33.4-6-5.47c-3.2-2.93-8.53-7.2-11.73-9.2-3.2-2.13-6.13-3.87-6.4-4.13-.27-.13,1.33-1.73,3.33-3.6,3.73-3.07,3.87-3.6,3.47-13.47-.4-9.2-.13-10.53,3.07-14.13,3.87-4.67,4.27-8.13,1.2-10.53-2.93-2.53-8.13-12-9.2-16.93-.67-3.47-.13-5.2,2.8-9.2,5.07-6.67,6-17.6,2-26.4-2.13-4.93-3.87-6.67-8.4-8.8-5.47-2.4-9.6-3.07-14.93-2.8-1.73.13-2.27.93-1.73,2.67.8,3.33-1.33,4.13-10.8,4.13-22.27.13-48.13,11.6-53.07,23.6-2.93,6.8-2.27,9.73,4.67,23.87,5.47,11.07,6.67,14.8,7.2,23.2.53,5.47.4,10.67-.13,11.47-.53.93-7.73,1.73-18.27,2.27-18.93.67-24.67,2.13-44.67,11.07-10.67,4.8-12.13,5.07-25.6,5.33-8,.13-15.07.27-15.87.4-.8,0-1.2,1.73-.93,3.73.53,4.93-2.53,5.6-31.6,7.07-14.93.67-26.53,2-30.67,3.2-6,1.87-26.8,2.13-190.27,2.13-183.33,0-183.73,0-183.73,2.67s.53,2.67,178.13,2.93l178.13.4-10.93,6.53c-14.53,8.8-22.93,11.47-41.2,12.8-8.53.67-18.13,1.73-21.47,2.53-3.33.8-10.93,1.33-16.93,1.47-13.47,0-15.07.53-15.07,5.6,0,3.07.8,4.27,4.27,5.6,4.13,1.73,4.13,1.87,1.2,3.33-7.2,3.87.67,14.27,8.67,11.47,3.07-1.2,4.27-.8,6.8,1.6,3.73,3.87,6.53,3.87,14.13-.13l6.13-3.33-.13,3.73c-.13,2.13.27,4.4.8,5.33,1.47,2.27,6.67,1.73,13.07-1.07,3.2-1.47,7.47-3.07,9.47-3.47,2-.4,6.53-3.73,10-7.47l6.27-6.67,22-3.87c12.13-2.13,37.87-7.33,57.33-11.33,19.47-4.13,38.67-7.87,42.67-8.27l7.33-.8-5.33,5.87c-6.4,7.2-15.47,15.33-28.93,26.4-5.73,4.53-10.4,8.8-10.4,9.33,0,.67-3.73,1.47-8.4,1.73-9.73.8-16.13,3.87-34.53,16-14.67,9.87-26,14.53-45.2,18.4-17.73,3.6-41.6,4.93-48.67,2.67-19.6-6.27-46.53-24.27-76.93-51.6-14.53-13.07-15.87-13.73-22.4-10-4.4,2.53-5.2,2.67-5.2.93,0-3.47-6.13-8.67-10.4-8.67-2.13,0-7.47,1.87-11.73,4-5.47,2.8-11.2,4.4-19.07,5.47-14.8,1.73-18.53,3.47-30.27,14-8.53,7.6-9.87,9.47-9.87,13.33,0,2.4-.53,4.8-1.33,5.2-2.27,1.33-1.47,9.47,1.07,11.73,3.47,3.2,7.07,2.8,13.07-1.2,7.87-5.47,13.2-7.33,28.4-10,21.47-3.87,28.13-3.07,28.13,3.33,0,7.73,54.27,48.67,85.2,64.4,21.33,10.93,50.4,19.07,67.6,19.07,3.2,0,5.87.67,5.87,1.33,0,1.47-11.2,15.73-14.27,18.27-1.07.8-5.73,1.33-11.6,1.07-9.2-.27-10.93-.8-25.6-8.67-31.2-16.53-57.47-33.33-88.67-56.8-18.93-14.27-21.2-15.33-25.33-10.4-1.33,1.73-2.13,1.2-4.8-3.47-3.73-6.27-8.93-9.33-15.73-9.33-4.27,0-6,1.2-15.07,10.8-11.07,11.6-17.73,15.73-30.93,19.2-9.73,2.53-19.2,7.07-24.93,11.87-2.93,2.53-4.27,4.93-4.8,9.33-.53,3.2-2.13,8-3.6,10.67-1.6,2.53-2.4,5.33-2,6.27.53.8.27,3.87-.67,6.67-1.33,4-1.47,6-.27,8.53,2.4,5.2,7.6,4.4,17.87-3.07,4.8-3.6,15.6-9.6,24-13.33,8.27-3.73,17.47-8.13,20.4-9.6,9.07-4.67,19.33-2.93,19.33,3.2,0,4.13,10.67,14,28.53,26.4,19.2,13.2,35.07,21.87,71.87,38.93,17.73,8.27,36.13,17.47,40.93,20.53,20.93,13.33,20,12.93,29.33,12.8,20.53-.27,43.73-15.87,95.33-63.87,21.73-20.27,40.67-36.67,49.47-42.93l4.13-2.93,6.4,3.33c3.6,1.73,7.87,3.2,9.6,3.2,9.6,0,21.73-10,43.33-35.6,19.47-23.07,47.47-53.07,64-68.27,6.27-6,11.73-10.8,12.13-10.8.27,0,3.33,2.67,6.53,6,7.07,7.07,11.6,7.87,14.93,2.67,1.73-2.53,2.8-3.07,4.53-2.13,4.67,2.4,23.2,8.13,33.2,10.13,13.47,2.8,33.6,2.8,44.4,0,10-2.53,19.47-7.2,38.93-18.8,19.47-11.73,28.53-15.73,47.6-21.2l16.27-4.67h779.47l4.93,14.93c13.47,40.93,37.74,75.47,66,93.73,9.87,6.4,25.07,14.13,32.14,16.53,3.6,1.2,6.53,4.13,13.06,13.47,18.94,27.2,53.2,62.67,82.27,85.07,14.67,11.47,16.27,12.27,21.87,12.27,9.6-.13,15.2-3.6,25.86-16,16.4-19.07,39.07-37.2,66.14-52.53l11.06-6.4h16.94c20.26,0,37.33,3.2,59.06,11.07,8.27,3.07,17.6,5.6,20.54,5.87,6.66.53,14.13,3.6,19.73,7.87,8,6.13,16.53,9.47,46.13,18.27,5.47,1.6,12.14,4.4,14.67,6,2.53,1.73,6.13,3.2,8.13,3.2,5.74,0,7.6-3.47,7.2-13.6-.26-7.33-1.06-10.13-4.4-15.33-2.13-3.47-4.4-7.73-4.8-9.33-1.33-4.4-4.26-6.13-12.13-7.2-9.2-1.2-14.27-4.8-19.73-14.27-5.74-9.73-11.34-13.6-19.87-13.6-7.6,0-16,3.87-19.2,8.67-1.6,2.53-3.33,3.33-6.67,3.33-3.86,0-4.53-.4-4.53-3.2,0-2-.93-3.6-2.27-4-5.2-1.47-33.6-8.8-34.26-8.8-.4,0-.8-.53-.8-1.2,0-1.33,16.26-4.13,24.13-4.13,3.07,0,9.33.67,14,1.6,7.33,1.33,8.8,1.2,11.73-.8,6.8-4.4,2.27-12.8-8.4-16-3.46-1.07-8.93-3.2-12-4.8-4.4-2.13-6.93-2.67-10.93-2-8.67,1.47-18.27-2.27-27.73-10.67-9.07-8-12.4-9.47-19.74-8-6.93,1.33-13.06,7.87-15.73,17.2-1.73,6-2.8,7.6-4.4,7.07-1.33-.4-7.6-2.27-14.27-4.27-11.6-3.47-12.66-3.6-33.33-2.67-20.67.8-21.73.67-32.67-2.8-15.2-4.67-32-12.4-51.6-23.47l-16.26-9.2-8-15.33c-10.4-19.87-19.47-33.33-31.07-46.27l-9.33-10.27h288.13c287.2,0,288.13,0,288.13-2.67s-.93-2.67-291.33-2.67h-291.47l-6.93-5.2c-3.87-2.8-13.73-8.8-22-13.47-14.8-8.4-37.6-24.53-38.53-27.47-.27-.93,1.06-1.87,2.93-2.4,5.73-1.47,3.73-5.07-6.93-12.13-11.07-7.33-18-15.73-20.54-25.07-1.86-6.8-.8-36.53,1.6-48.67,1.74-8.27,1.74-8.53,5.47-7.73,7.73,1.47,18.4,7.73,23.6,13.73,4.53,5.07,6,5.87,8.8,5.2,4.27-1.07,10.4,2,24.67,12.67,16.8,12.4,20.4,13.73,36.53,12.8,8.67-.4,20.53-2.4,33.47-5.47,20-4.8,32-6,36.53-3.47,1.33.67,3.2,3.2,4.13,5.6.94,2.4,3.47,6.8,5.6,9.73,2.14,2.93,5.2,7.47,6.8,10,1.74,2.53,4.27,4.8,5.87,5.07,4,.53,7.47-5.07,6.8-11.07-.27-2.53-.13-4.67.53-4.67.54,0,4,2.67,7.74,6,8.93,8,16,7.87,16-.4,0-2.8.4-3.07,3.86-2.27,3.74.8,8.14-1.73,8.14-4.8,0-.67,2-1.2,4.53-1.2,4.8,0,8.8-2.8,8.8-6.13,0-3.73-6.13-8.27-13.33-9.73-9.6-2-26.4-8.93-31.6-12.93-8.54-6.4-11.2-6.93-35.6-6.27-19.74.67-26.27.27-48.54-2.93-14.26-1.87-27.46-3.2-29.46-2.67-3.87.8-2.8,1.47-44.54-29.07-25.2-18.53-38.53-24.93-55.2-26.93l-8-.93.67-5.87c.4-3.33,0-6.67-.93-7.73-1.2-1.33-1.07-2.13.53-3.47,1.07-.93,2-2.4,2-3.33s1.2-3.2,2.8-5.2c2.4-3.07,3.73-3.47,10.93-3.6,4.54,0,11.2-.53,14.8-.93l6.4-.93,2.94-8.13c4.13-11.47,9.33-19.73,18.4-29.47,7.33-7.87,9.46-12.53,6.4-14.4-2.54-1.6-1.34-3.33,2.13-3.33,6,0,19.47-18,17.47-23.2-.8-2-2.67-1.33-13.47,4.53-14,7.6-25.6,10.67-40.27,10.67s-28.93-3.33-58.26-13.47c-14.8-5.2-31.07-10.27-36-11.33-11.07-2.27-26.8-2.27-37.74.13ZM1540.8,57.28c6,1.33,19.2,5.6,29.33,9.33,47.74,17.6,74.14,19.07,100.8,5.47q10.4-5.2,8.27-1.6c-4.8,8.27-6.53,9.47-15.87,11.87-10.66,2.67-12.4,5.47-4.26,7.33,2.66.67,4.93,1.73,4.93,2.4,0,1.73-16,18.93-18.67,20.13-3.06,1.33-25.06,1.2-34.26-.27-4.54-.8-13.34-2.8-19.47-4.67-14.93-4.27-14.53-4.27-15.2-2.4-.27.8,3.6,2.8,9.87,4.8,16.93,5.47,22.8,6.53,40.53,7.47l16.8.8-1.87,4.53-1.86,4.53-11.6-.93c-6.4-.4-12.8-.93-14.14-1.2-3.6-.4-4.13,2.53-.53,3.6,1.73.4,8,1.2,14,1.6,10.27.93,10.8,1.07,9.87,3.73-1.47,3.73-7.07,4.67-28.14,4.67-45.6.27-78-10.53-107.86-35.87-9.6-8.27-22.8-25.87-22.8-30.53,0-13.47,34-21.6,62.13-14.8ZM1493.87,100.74c5.06,4.8,11.46,10.27,14.26,12.13,3.47,2.27,6.94,6.53,10.4,13.07,2.94,5.33,8.4,12.8,12,16.53,4.4,4.53,8.54,10.8,12,18.13,9.6,20.53,17.47,28.4,26.67,27.07,4.13-.53,4.27-.4,3.47,2.8-2.14,8.53-13.74,23.87-20.8,27.6-9.47,4.8-18.54-.13-18.54-10,0-5.2,1.74-8.13,3.34-5.47.4.67,1.33,1.33,2.13,1.33,4.8,0-6.13-18.27-16.27-26.93-6-5.33-6.26-5.73-4.26-8,3.46-3.87.8-4.53-5.6-1.33-7.47,3.6-14.67,3.73-20.14.4-4.66-2.8-10.4-13.47-12-22.13-.93-5.2-.8-5.33,1.74-3.07,2.66,2.4,5.73,3.2,5.73,1.47,0-.53-1.6-2.67-3.6-4.67l-3.6-3.87,5.6-5.07c6.4-5.87,6.93-9.2,2.8-16-1.87-3.2-3.07-4.13-4.13-3.07-1.07,1.07-.8,2.4.8,4.8,3.2,5.07,2.66,8.13-2.4,12-2.54,1.87-5.07,3.47-5.6,3.47-1.74,0,.66-22,3.46-31.07,1.47-4.93,2.94-8.93,3.07-8.93s4.4,4,9.47,8.8ZM1476.27,103.54c-2.8,10.27-2.8,32,.13,42.4,1.2,4.27,1.87,8.27,1.47,8.67-.4.4-2.27-1.2-4-3.33-9.07-11.33-9.6-28-1.47-45.2,2.67-5.6,5.07-10.13,5.47-10.13.26,0-.4,3.47-1.6,7.6ZM1531.07,126.74c16.93,8.67,36.26,13.6,59.46,15.33,6.67.53,12.14,1.07,12.14,1.2,0,2.8-3.47,8.67-5.07,8.8-3.6.13-7.07.93-7.87,1.73-1.33,1.2,2.14,4.53,5.74,5.33,2.93.8,3.33,1.47,2.93,5.87-.4,4.8-.53,4.93-7.73,6-7.74,1.2-33.74.4-37.6-1.07-2-.8-9.47-14-8.54-15.07.27-.13,4.8,1.73,10.27,4.4,11.2,5.2,19.2,7.33,18.4,4.8-.4-.93-4.93-3.33-10.27-5.47-12.26-5.07-22.8-11.73-30-19.33-5.46-5.6-12.66-16.67-10.93-16.67.4,0,4.53,1.87,9.07,4.13ZM1307.2,133.68c2.27,2.4,6.67,8.13,9.87,12.53,6.4,9.2,14.93,17.47,30,29.47,12.8,10.13,23.6,16.13,41.2,23.2,7.6,2.93,18,8.27,23.06,11.73,18.4,12.4,28,15.33,47.74,14.53l11.33-.53.67,9.33c.26,5.07,1.06,10.4,1.6,11.6,1.33,3.47-5.87,4.27-23.07,2.53-18.53-1.87-28.67-4.93-49.2-14.93-19.6-9.6-36.27-20.4-50.13-32.67-5.74-5.07-14.14-12.4-18.54-16.27l-8.26-6.93h-10.67c-10.13,0-11.47.4-22.67,6-12.53,6.4-16.4,7.2-17.6,4-1.33-3.33,2.8-7.87,11.34-12.53,16.8-8.93,20.13-15.07,12.4-22.8-5.2-5.2-10.94-6.53-34.94-8-22.26-1.47-27.06-2.67-26.4-6.4.4-2,3.2-2.4,27.74-2.93,21.2-.53,28.53-1.2,32.66-2.93,7.2-2.93,7.07-3.07,11.87,2ZM1245.33,147.14l12.67,1.6-8.93,2.27c-9.2,2.27-27.07,3.07-28.27,1.2-1.07-1.87,1.33-4.4,5.33-5.6,5.07-1.47,4.4-1.47,19.2.53ZM1272.67,150.48c-.8.67-6.54,3.33-13.07,6-11.07,4.53-22.93,6.4-25.47,3.87-.4-.53,7.74-3.07,18.14-5.87,21.73-5.6,22.13-5.6,20.4-4ZM1291.07,152.88l4.26,2.4-4.66.4c-6.54.53-16.94,4-23.6,7.87-5.47,3.07-12.14,3.73-12.8,1.2-.14-.67,4-3.07,9.06-5.2,8.4-3.47,22-8.8,23.07-8.93.27,0,2.27,1.07,4.67,2.27ZM1577.33,175.94l8.67.13-7.33,3.87c-10.14,5.33-14.4,5.2-20.14-.8l-4.53-4.93,7.33.93c4,.4,11.2.8,16,.8ZM1614.8,177.28c12.4,2.4,32.67,13.2,48.93,26.27,5.2,4.27,5.6,5.07,5.6,11.07,0,4.93-.93,7.73-4.26,12.8-6.67,9.73-7.87,10-15.07,3.33-6.93-6.4-18.13-12-26-13.07-6-.8-5.33-2-8.67,17.47-2.66,15.47-2.53,36.93,0,45.87,2.67,8.67,10.27,18.27,19.74,24.8,4.26,2.93,7.46,5.47,7.2,5.6-.14.27-5.6,2.13-12,4.27-18.8,6.4-35.47,18.13-49.74,35.2-3.6,4.27-6.93,7.73-7.46,7.73-1.6,0-16.14-18.27-21.34-26.8-2.66-4.4-6.4-12.53-8.4-18.27-4.8-14-4.66-13.87-11.46-15.73-7.87-2.27-17.47-10.8-21.34-18.8-5.73-11.87-3.06-27.73,6.8-41.73,3.2-4.4,3.34-5.33.8-5.33-1.06,0-3.73,2.93-6,6.4l-4.13,6.4-13.6,2.4-13.6,2.4-2.4-2.93c-3.07-3.73-4-9.33-3.47-20l.4-8.67,8.8-.8c7.87-.67,9.87-1.47,20.4-8.53,9.74-6.53,12.67-7.87,18.67-8.4l7.2-.53-.67,5.87c-.8,7.33,2,13.47,7.6,16.4,8.27,4.27,16.27,1.6,25.74-8.53,5.73-6.13,15.6-23.6,15.6-27.6,0-2.8,17.46-9.07,26.8-9.73,1.2-.13,5.46.53,9.33,1.2ZM1688.67,221.81c8.26,6,13.06,10.53,12.8,11.6-1.2,3.47-.8,11.2.53,11.6.8.27,1.73-1.87,2.13-4.53.94-5.2,4-8.53,8-8.53,1.34,0,13.34,1.6,26.8,3.47,20.54,2.8,28.27,3.33,49.07,2.93l24.67-.4,6.8,4.8c7.73,5.47,19.46,10.53,33.33,14.53,9.33,2.67,13.33,6,9.07,7.6-4.4,1.73-14.4-.93-28.14-7.47-15.46-7.33-19.46-8-23.33-4.53-3.47,3.07-2.93,9.2,1.6,17.6,2.67,5.07,3.47,7.87,2.8,10-.67,1.47-1.73,2.8-2.4,2.8-1.73,0-13.07-16.4-15.6-22.53-3.2-7.6-7.07-9.33-19.87-8.4-6,.4-18.4,2.67-27.6,4.93-19.2,4.93-37.2,6.53-45.73,4-3.2-.8-10.67-5.2-16.4-9.47-5.73-4.4-13.2-9.6-16.53-11.47-3.34-1.87-6.27-3.6-6.54-3.87-.26-.13,1.47-3.07,3.87-6.4,2.8-3.87,4.53-8.13,4.93-12,.4-3.33,1.07-6.13,1.6-6.13.4.13,6.8,4.53,14.14,9.87ZM1830,259.81c5.87,2.93,13.07,6.27,15.87,7.47,3.86,1.47,4.93,2.4,3.86,3.47-1.73,1.73-11.33-2.53-22.13-9.73-4.53-2.93-6.8-3.73-7.73-2.8-1.07,1.07.13,2.53,4.26,5.07,8,4.93,14.54,11.33,14.54,14.27,0,4-4.4,2.8-9.87-2.8-2.8-2.8-7.47-6.27-10.27-7.6-5.33-2.27-7.6-6.4-6-10.53,1.2-3.2,6.14-2.27,17.47,3.2ZM610.8,290.08c.93,3.47,3.6,8.8,6.13,12.13l4.4,5.87-3.47,4.67c-3.33,4.27-3.47,5.33-2.93,14,.67,8.13.4,9.87-1.73,12-3.47,3.47-11.2,3.2-18.53-.53-4.93-2.4-6.67-4.4-10-11.47-2.8-5.73-5.47-9.2-8.13-10.53-6.4-3.2-8.53-5.73-8.53-10.27,0-8.67,7.73-10.27,12.27-2.53,5.2,8.93,13.07,8.53,13.07-.67,0-3.47.93-5.87,2.8-7.6,2.13-1.87,2.67-3.6,2.13-6.8l-.8-4.4h11.87l1.47,6.13ZM577.47,322.21c2.53,3.07,6.8,12.53,6.13,13.33-.4.27-6.27-.4-13.07-1.47-6.93-1.07-15.33-2.4-18.93-2.8-3.47-.53-6-1.33-5.6-2s2.67-.53,5.07.13c5.6,1.6,14.53,1.6,18.8-.13,2.67-.93,3.47-2.13,3.47-5.33,0-4.53,1.33-5.07,4.13-1.73ZM1649.73,330.48c7.47,5.73,20.27,14.13,28.27,18.8,22.4,12.8,28.4,17.33,40.93,30.53,14.94,15.6,25.34,31.47,38.4,58.13,15.2,30.8,27.74,67.6,36.14,105.33,2.93,13.47,5.06,17.73,7.86,16,.94-.67,1.2-3.2.67-7.87l-.93-6.93,10.4-8.27c15.86-12.53,22.8-15.6,45.06-20.27,27.2-5.73,47.2-13.2,52.4-19.87,1.47-1.87,2.27-1.6,6.4,2.8,3.47,3.73,4.67,6.27,4.67,9.6,0,4.53-.27,4.8-15.6,12.93-42.4,22.53-67.87,41.87-91.2,69.07-6.8,8-7.6,8.53-14.13,9.07-6.8.67-6.94.67-19.07-8.67-39.2-30.13-74.93-69.07-95.73-104.27-14.54-24.67-29.47-61.33-38.4-94.53-3.87-14.4-4.94-16.27-7.87-13.33-1.73,1.6-1.73,2.8,0,9.2,1.07,4,1.6,7.47,1.33,7.73-.4.4-3.33-.4-6.66-1.6-6-2.4-8.67-2-8.67,1.07s3.6,5.07,10.93,6.67l6.8,1.6,6.94,19.87c8.13,23.47,12.93,34.93,21.73,52l6.4,12.53-4.67-2c-24.66-10.27-46.26-28.53-62.26-52.67-10.67-16.13-17.87-31.2-25.34-54l-6-18.13,7.07-8.13c3.87-4.4,10.93-11.33,15.73-15.2,8.67-7.2,27.87-17.73,32.4-17.73,1.34,0,8.54,4.67,16,10.53ZM790.27,324.88c.27.67-2.27,2.4-5.6,3.6-11.2,4.4-12.8,12.8-2.4,12.8,7.07,0,13.6-3.73,18.67-10.93,4.4-6.13,8.53-8.13,10.4-5.07,1.47,2.53-4.67,10.4-11.47,14.8-4.4,2.8-6.27,4.67-5.33,5.6.8.8,2.93.27,6.27-1.6,2.67-1.6,5.2-2.67,5.47-2.27,1.33,1.2-2.53,6.13-6.27,8.13-2.27,1.2-4,2.53-4,3.2,0,2.13,1.73,2.67,4.13,1.33,3.07-1.6,3.07-.93.67,3.87-2.53,5.07-9.87,8.8-25.07,12.8-16.53,4.27-25.2,8.4-48.93,22.67-24.13,14.4-35.47,18.4-53.47,18.4-6.93.13-16.53-.67-21.33-1.47-12.67-2.4-37.33-10.67-37.33-12.53,0-3.47,7.87-18,11.07-20.53,8.53-6.67,10.4-6.67,23.87.13,10.67,5.47,13.6,6.27,20.8,6.4,7.2.13,9.6-.53,18.67-5.33,10.13-5.33,17.33-7.2,34.8-9.07,10.67-1.07,21.87-4.8,27.47-9.07,2.4-1.87,6.67-7.87,9.73-13.73,6.27-11.87,13.6-19.73,21.07-22.4,5.6-2,7.47-2,8.13.27ZM574.67,338.61c8.4,1.47,17.07,3.73,19.2,4.8,2.13.93,4.53,1.87,5.33,1.87,4,0,20.93,9.73,27.87,16l7.73,7.07-5.07,2.27c-7.33,3.2-12.67,10-17.6,22.4-2.53,6-5.07,11.33-5.73,11.73-2,1.33-7.6-3.2-12.67-10.27-4.67-6.67-8.13-8-7.33-2.93.27,1.87-2.8,5.47-10.4,12.4-13.87,12.4-44.67,45.2-62.67,66.67-17.33,20.67-29.2,32.27-36.13,35.33-2.8,1.33-5.47,2.13-5.87,1.87-.27-.4.13-4.53.93-9.2,1.2-7.2,1.07-9.87-.67-16-3.73-12.4-14-29.07-24.93-40.13-9.47-9.6-12.53-11.47-25.33-15.47-1.6-.4-1.2-1.2,1.33-3.2,29.47-23.6,43.07-38,52-54.8,6.4-12,3.07-12.93-3.87-1.2-6,10.13-8.93,12.53-14.53,11.87-3.2-.4-4-1.6-7.2-10.8-2-5.73-4.53-11.73-5.73-13.33-3.2-4.53-2.53-4.93,5.73-4.13,10.27,1.07,20.67-1.07,34-6.93,20-8.8,26.53-10,52.93-9.33,16.13.4,28.13,1.47,38.67,3.47ZM443.47,364.88c1.2,3.6,3.07,8.4,4,10.8,1.33,3.47,1.47,4.53.13,4.93-3.47,1.2-85.07,17.87-98.27,20-7.73,1.33-17.6,3.6-22,5.33-4.93,1.73-12.8,3.2-20.4,3.73-12,.93-14.13,1.6-26.13,8.53-1.47.93-3.87,1.73-5.07,1.73-4.93,0-2.13-4.27,6.67-10,4.93-3.2,10.67-7.33,12.93-9.2,3.2-2.8,3.47-3.47,1.73-4.13-2.4-.93-7.73,1.33-7.73,3.2,0,1.6-16.93,12.27-22.67,14.4-4.8,1.73-9.33,1.2-9.33-1.07,0-.67,3.73-2.93,8.4-4.93,4.67-2.13,12-6.13,16.27-8.93,7.07-4.53,8.93-5.07,18-5.33,21.6-.8,31.33-4.13,55.33-18.8,16-9.87,21.6-11.2,49.33-12.67,13.2-.53,25.87-1.73,28-2.4,7.33-2.27,8.27-1.87,10.8,4.8ZM688.13,374.88c-8,4.4-11.07,5.47-16.67,5.47-7.33-.13-19.47-4.13-24.8-8.4l-3.33-2.67h54.67l-9.87,5.6ZM273.33,399.54c-3.07,2.13-14.53,2.8-17.47.93-3.47-2.13,0-3.2,9.73-3.2,10.8,0,10.93,0,7.73,2.27ZM168.53,400.74c1.33,1.33,2.13,4.4,2.13,8.4,0,5.2.67,7.07,3.47,10,2,1.87,4.13,3.47,4.67,3.47,2,0,1.33,2.53-2.27,8-4,6-4.93,6.27-11.2,3.07-6.8-3.33-15.2-3.47-30.93-.53-13.47,2.4-23.47,6.13-31.87,11.6-2,1.2-4.53,1.87-5.73,1.47-2.4-.93-2.93-6.93-.8-8.27.8-.4,1.33-2.8,1.33-5.2,0-3.87,1.33-5.6,9.6-12.67,11.2-9.87,12.13-10.27,27.33-12.13,8.13-1.07,13.87-2.67,19.07-5.33,8.4-4.4,12.27-4.93,15.2-1.87ZM181.33,412.74c0,5.07-2,5.6-4.53,1.33-1.2-1.73-.93-2.67,1.07-4.27q3.47-2.53,3.47,2.93ZM205.47,422.08c27.33,24,57.6,43.2,74.4,47.47,5.07,1.2,6.13,2.27,7.87,6.67,1.33,3.47,2.8,5.07,4.67,5.07,2.27,0,2.53-.67,1.87-5.2-.8-6.13.4-6.8,12.67-6.8,10.53,0,31.6-4.27,44.8-9.07,6.13-2.27,16.93-8,24.27-12.8,18.53-12.13,23.33-14.4,32.67-15.2,16.4-1.2,28.8,5.07,40.67,20.8,6.27,8.27,16.27,26.8,17.87,32.93.53,2.13-2.4,4.93-15.2,14.4-17.73,13.2-34.53,27.6-63.2,54.67-32.13,30.13-54.67,46.53-71.87,52.53-12.53,4.4-17.07,3.6-30-4.67-16.27-10.4-17.87-11.2-51.47-26.8-44-20.4-71.6-36.8-88.4-52.67-8.27-7.6-8.67-10.13-4-23.47,3.47-9.47,7.87-17.2,14.27-24.53l4.13-4.67,13.6,10.4c31.73,24.13,61.07,43.07,93.2,60.13,15.07,7.87,15.73,8.4,14.8,11.73-1.6,6.53-1.2,8.93,1.73,9.33,2.13.27,3.07-.8,4.67-6l1.87-6.4h17.07l6.8-8c13.07-15.47,43.07-44.13,63.2-60.53,11.07-9.07,20.27-17.33,20.27-18.4,0-.93-.93-2.13-2-2.53-3.07-1.2-36,25.6-58.67,47.6l-12,11.73-13.33-1.33c-44.27-4.4-83.6-24.67-136.53-70.13l-4.4-3.73,4.27-4.67c6.13-6.53,12-19.47,12-26.4s-.8-7.33,17.47,8.53ZM317.47,415.94c-1.73,1.47-4.4,2.67-6,2.67-1.47.13-5.2,1.2-8.13,2.67-2.93,1.47-5.73,2.53-6.27,2.67-2.13,0-.93-3.6,2-6.4,2.67-2.53,7.07-3.47,17.6-4l4-.13-3.2,2.53ZM1786.93,460.08c11.74,6.8,43.47,19.6,54.27,21.87,6.53,1.47,11.2,1.47,20.67.4,13.6-1.47,24.93-.8,34.93,2.27,6.27,1.87,6.8,2.27,6.13,5.33-1.2,6.4-17.33,12.93-47.86,19.33-10.67,2.27-21.87,5.47-24.94,6.93l-5.6,2.67-15.73-3.2-15.73-3.07-7.07-21.33c-3.87-11.73-8.53-25.2-10.53-29.87-1.87-4.8-3.47-8.8-3.47-9.07,0-.67,3.87,1.33,14.93,7.73ZM144.4,463.28c1.73,1.87,4,5.07,4.93,7.2,1.33,3.47,1.07,4.53-4,12.27-2.93,4.53-6.53,12-7.87,16.4l-2.53,8.13-6.53-.4c-3.87-.27-8.53.4-11.2,1.47-25.07,10.93-38.53,17.73-46.93,23.6-10.27,7.2-14.27,7.87-14.27,2.8,0-1.47.67-3.07,1.47-3.6.8-.4,1.2-2.67.8-5.07-.4-2.67.27-5.33,1.73-7.47,1.33-1.87,2.8-6.27,3.33-9.73,1.33-9.07,8.4-13.73,30.13-20.13,8.27-2.53,13.87-5.2,19.73-9.47,4.4-3.33,8.13-6.4,8.13-6.93,0-.67,2.27-3.6,5.2-6.8,6.27-6.93,12.4-7.6,17.87-2.27ZM1949.87,469.28c9.46,8.93,17.73,12.53,29.46,12.67,6.27,0,10.4.8,12.67,2.27,1.87,1.2,6.13,2.93,9.6,3.73,7.07,1.87,11.2,5.47,9.87,8.8-.67,1.73-1.87,2-6.54,1.33-20.8-3.33-33.33-2-61.2,6.53-17.6,5.47-18.4,5.47-18.4,1.87s-2.13-7.6-6.4-12.13c-2.66-2.93-3.06-4-1.73-5.47.8-1.07,2.8-6,4.53-11.07,2.27-7.2,3.87-9.73,7.47-12.13,7.47-5.07,12.53-4.13,20.67,3.6ZM468.8,497.54c-.4.93-.93,3.33-1.33,5.33-.93,4.13-2.8,4.67-6.8,1.6-2.53-1.87-2.53-2,1.33-5.2,4.4-3.47,7.6-4.27,6.8-1.73ZM1964.53,511.28c5.47,1.87,11.07,3.33,12.27,3.33,1.33,0,5.87,1.07,10.13,2.27,8.54,2.53,10.14,5.2,8.4,14.93-1.73,10-2.66,10.4-15.06,5.6-18.8-7.2-39.34-11.6-57.87-12.4-4.27-.27-7.73-.53-7.73-.67s2-1.33,4.4-2.53c2.26-1.2,5.46-3.2,6.93-4.53,2.67-2.4,21.87-9.2,26.27-9.33,1.33,0,6.8,1.47,12.26,3.33ZM2039.07,515.94c1.86,1.47,5.6,6.27,8.26,10.67,5.47,9.07,12.54,14,22,15.47,7.2,1.07,8.8,2.13,10,6.8.4,1.87,2.27,5.33,4.14,7.73,2.66,3.47,3.2,5.73,3.2,13.07,0,4.93-.54,8.93-1.2,8.93-.8,0-5.34-2.13-10.4-4.67-4.94-2.53-9.74-4.67-10.67-4.67-.8,0-9.6-2.67-19.47-5.87-12.13-3.87-20.53-7.47-25.86-11.07-4.27-2.8-10.54-6.27-14-7.6-7.2-2.67-6.94-2.13-4.8-11.33,1.46-6.27,1.86-6.8,5.46-6.8,2.8,0,5.2-1.47,8.8-5.33,2.67-2.8,6.27-5.73,8.14-6.53,5.6-2.27,12.66-1.73,16.4,1.2ZM1811.73,521.68l7.07,1.6-9.33,7.6c-5.2,4.27-10,7.73-10.54,7.73-.66,0-1.86-3.2-2.8-7.07-.8-3.73-1.86-8.4-2.4-10.13-.8-3.07-.66-3.2,5.07-2.27,3.2.53,9.07,1.6,12.93,2.53Z"/>
  <path class="cls-4" d="M1546.93,272.21c1.07,3.07,10.94,8.93,17.74,10.53,7.86,1.73,21.33-.27,24.66-3.6,1.87-2,1.47-2.13-4.66-1.07-13.6,2.27-21.2,1.47-28.67-3.2-7.33-4.53-9.87-5.33-9.07-2.67Z"/>
  <path class="cls-4" d="M694.67,401.14c-1.87,1.33-4.53,2.67-5.87,2.93-3.87.8-4.27,3.87-.53,3.87,4.13,0,11.73-4.8,11.73-7.33,0-2.67-1.2-2.53-5.33.53Z"/>
  <path class="cls-4" d="M386.67,379.01c0,2.67,7.2,5.47,11.47,4.4,4.4-1.2,3.47-3.73-1.6-4.13-2.13-.27-5.2-.8-6.8-1.33-2.27-.67-3.07-.4-3.07,1.07Z"/>
  <path class="cls-4" d="M2172.67,61.41c-.27,1.07-.8,7.6-.94,14.53l-.4,12.67-12.93.4c-7.2.13-13.07.93-13.07,1.6s5.87,1.47,13.07,1.6l12.93.4.67,13.07c.4,7.33,1.2,12.93,2,12.93s1.6-5.6,2-12.93l.67-13.07,11.73-.4c6.4-.13,11.6-.93,11.6-1.6s-5.2-1.47-11.6-1.6l-11.73-.4-.4-13.33c-.4-12.4-1.87-18.4-3.6-13.87Z"/>
  <path class="cls-4" d="M473.87,117.28c-5.87,2.27-4.8,10.67,1.47,10.67,3.73,0,7.6-3.47,7.07-6.4-.67-3.07-5.33-5.47-8.53-4.27Z"/>
  <path class="cls-4" d="M236.8,128.08c-.4,2.27-.8,7.07-.8,10.67v6.4l-8.93.4c-5.07.27-9.07.93-9.07,1.73,0,.67,4,1.47,9.07,1.73l8.93.4v8.53c0,8.93.8,12.67,2.8,12.67.67,0,1.2-4.8,1.2-10.67v-10.67l6.4-.13c7.73-.13,13.87-1.87,10.93-2.93-1.07-.53-5.33-1.07-9.33-1.2l-7.33-.4-.4-10.4c-.4-10.53-2-13.47-3.47-6.13Z"/>
  <path class="cls-4" d="M127.73,294.61c-13.73,7.33-17.33,25.47-7.33,36.93,14.93,16.93,42.27,6.93,42.27-15.6,0-17.6-19.47-29.47-34.93-21.33ZM149.33,299.81c6.4,4.53,9.6,10.8,8.93,17.6-1.07,11.6-10.4,19.47-21.73,18.13-7.6-.8-13.2-5.07-15.87-12.27-2.93-7.6-1.87-13.87,3.6-20,6.53-7.47,17.33-8.93,25.07-3.47Z"/>
  <path class="cls-4" d="M1451.6,458.08c-.53.53-.93,7.47-.93,15.33v14.4l-12.67.4c-16.67.53-17.07,2.93-.67,3.73l12.67.67.4,13.73c.27,10.13.8,13.6,2,13.2,1.07-.27,1.73-4.93,2-14l.4-13.6h14c10.67,0,14-.4,13.6-1.73-.4-1.07-4.8-1.73-14.13-2l-13.6-.4-.14-12.93c0-12.8-1.06-18.67-2.93-16.8Z"/>
  <path class="cls-4" d="M861.33,488.08c-9.47,1.07-22.8,5.47-25.33,8.53-2.4,2.8.53,2.67,10.13-.8,12.27-4.4,29.6-4.93,45.07-1.33,6.93,1.6,15.6,4.4,19.07,6.27,8.13,4.13,9.6,4,18.13-.67,9.2-5.2,24.27-8.13,41.2-8.13,11.2,0,15.47.67,23.07,3.47,11.6,4.13,13.33,4.4,13.33,1.87,0-1.2-3.87-3.47-10-5.87-9.33-3.87-11.07-4-27.33-3.87-19.33.13-34,3.07-44.13,9.07l-5.6,3.33-6.53-3.2c-14-6.8-34.53-10.4-51.07-8.67Z"/>
  <path class="cls-4" d="M1316.8,531.28c-4.53,4.53-1.6,12.67,4.53,12.67,6.94,0,10.54-6.8,5.74-10.93-3.87-3.47-7.87-4-10.27-1.73ZM1324.67,537.28c0,1.07-1.34,2.13-2.94,2.4-2.4.4-3.06-.27-3.06-2.4s.66-2.8,3.06-2.4c1.6.27,2.94,1.33,2.94,2.4Z"/>
  <path class="cls-4" d="M1115.33,550.08c-14.93,2.93-17.6,3.87-25.33,9.2l-8.4,5.73-2.8-2.93c-8-8.53-25.87-13.6-37.2-10.67-7.47,2-4.67,3.6,6.67,3.87,13.06.27,18.53,2.27,26.8,9.87,3.2,3.07,6.4,5.47,6.93,5.47s3.07-1.87,5.73-4.13c8-7.07,18.14-10.93,30.27-11.47,13.47-.67,14.8-1.07,12.67-3.73-1.6-1.87-8.8-2.4-15.34-1.2Z"/>
</svg>